# xmcd CD database file
#
# Track frame offsets:
#	150
#	31350
#	50466
#	68579
#	89664
#	129696
#	140996
#	160890
#	172412
#	181787
#	195456
#
# Disc length: 2912 seconds
#
# Revision: 0
# Processed by: cddbd v1.5.2PL0 Copyright (c) Steve Scherf et al.
# Submitted via: CDex 1.51
#
DISCID=a20b5e0b
DTITLE=Larry Franco - Jazz Society
DYEAR=2007
DGENRE=Jazz
TTITLE0=Non sparate sul pianista 01
TTITLE1=Caro Natalino 02
TTITLE2=Oh Baby kiss me 03
TTITLE3=Do you know what it means to miss new orleans 04
TTITLE4=In cerca di te 05
TTITLE5=Marilù 06
TTITLE6=China boy - Pippo non lo sa 07
TTITLE7=Boccuccia di rosa 08
TTITLE8=Permette signorina 09
TTITLE9=Ho un sassolino nella scarpa 10
TTITLE10=The sheik of Araby . la dolce vita 11
EXTD=YEAR: 2007
EXTT0=
EXTT1=
EXTT2=
EXTT3=
EXTT4=
EXTT5=
EXTT6=
EXTT7=
EXTT8=
EXTT9=
EXTT10=
PLAYORDER=
